<svg xmlns="http://www.w3.org/2000/svg" version="1.1" xmlns:xlink="http://www.w3.org/1999/xlink" xmlns:svgjs="http://svgjs.dev/svgjs" width="1000" height="623" viewBox="0 0 1000 623"><g transform="matrix(1,0,0,1,-0.6060606060606233,0.2522267206477409)"><svg viewBox="0 0 396 247" data-background-color="#282634" preserveAspectRatio="xMidYMid meet" height="623" width="1000" xmlns="http://www.w3.org/2000/svg" xmlns:xlink="http://www.w3.org/1999/xlink"><g id="tight-bounds" transform="matrix(1,0,0,1,0.2400000000000091,-0.09999999999999432)"><svg viewBox="0 0 395.52 247.2" height="247.2" width="395.52"><g><svg></svg></g><g><svg viewBox="0 0 395.52 247.2" height="247.2" width="395.52"><g><path d="M55.039 247.2l30.863-53.456v7.724h3.124l-22.403 38.804h262.274l-22.403-38.804h3.124l0-7.724 30.863 53.456zM197.76 0l26.403 45.732-7.583 0-18.82-32.596-18.82 32.596-7.583 0z" fill="#ffffff" fill-rule="nonzero" stroke="none" stroke-width="1" stroke-linecap="butt" stroke-linejoin="miter" stroke-miterlimit="10" stroke-dasharray="" stroke-dashoffset="0" font-family="none" font-weight="none" font-size="none" text-anchor="none" style="mix-blend-mode: normal" data-fill-palette-color="tertiary"></path></g><g transform="matrix(1,0,0,1,108.14999999999998,67.97999999999999)"><svg viewBox="0 0 179.22000000000003 111.24" height="111.24" width="179.22000000000003"><g><svg viewBox="0 0 179.22000000000003 111.24" height="111.24" width="179.22000000000003"><g><svg viewBox="0 0 179.22000000000003 111.24" height="111.24" width="179.22000000000003"><g id="textblocktransform"><svg viewBox="0 0 179.22000000000003 111.24" height="111.24" width="179.22000000000003" id="textblock"><g><svg viewBox="0 0 179.22000000000003 111.24" height="111.24" width="179.22000000000003"><g transform="matrix(1,0,0,1,0,0)"><svg width="179.22000000000003" viewBox="2.25 -35.5 58 36" height="111.24" data-palette-color="#ffffff"><path d="M12-35L21.15-35 21.15-30.6 12.3-30.6Q7.25-30.6 7.25-26.5L7.25-26.5Q7.25-24.3 9.47-22.78 11.7-21.25 15.5-19.85L15.5-19.85Q17.2-19.2 18.4-18.53 19.6-17.85 20.8-16.75 22-15.65 22.6-13.93 23.2-12.2 23.2-9.95L23.2-9.95Q23.2-7.45 22.15-5.48 21.1-3.5 19.45-2.38 17.8-1.25 16.07-0.68 14.35-0.1 12.7-0.05L12.7-0.05Q12 0 10.7 0L10.7 0 2.9 0 2.9-4.4 10.55-4.4Q13.95-4.4 16.1-5.83 18.25-7.25 18.25-10L18.25-10Q18.25-11.35 17.65-12.38 17.05-13.4 15.93-14.15 14.8-14.9 13.63-15.45 12.45-16 10.8-16.6L10.8-16.6Q10.35-16.75 10.1-16.85L10.1-16.85Q2.25-19.85 2.25-26.65L2.25-26.65Q2.25-30.85 4.95-32.93 7.65-35 12-35L12-35ZM26.6-0.4L26.6-0.4Q25.7-1.3 25.7-2.6L25.7-2.6Q25.7-3.9 26.6-4.8 27.5-5.7 28.8-5.7L28.8-5.7Q30.1-5.7 31-4.8 31.9-3.9 31.9-2.6L31.9-2.6Q31.9-1.3 31-0.4 30.1 0.5 28.8 0.5L28.8 0.5Q27.5 0.5 26.6-0.4ZM41.6-23.2L41.6 0 36.9 0 36.9-23Q36.9-28.9 40.07-32.2 43.25-35.5 48.5-35.5L48.5-35.5Q54.1-35.5 57.17-32.3 60.25-29.1 60.25-24.15L60.25-24.15Q60.25-21.05 59.12-18.75 58-16.45 56.1-15.2 54.2-13.95 52.05-13.35 49.9-12.75 47.55-12.75L47.55-12.75 43.8-12.75 43.8-17.15 48.1-17.15Q51.45-17.15 53.37-19.18 55.3-21.2 55.3-24.25L55.3-24.25Q55.3-27.25 53.52-29.18 51.75-31.1 48.45-31.1L48.45-31.1Q45.25-31.1 43.42-28.93 41.6-26.75 41.6-23.2L41.6-23.2Z" opacity="1" transform="matrix(1,0,0,1,0,0)" fill="#ffffff" class="wordmark-text-0" data-fill-palette-color="primary" id="text-0"></path></svg></g></svg></g></svg></g></svg></g><g></g></svg></g></svg></g></svg></g><defs></defs></svg><rect width="395.52" height="247.2" fill="none" stroke="none" visibility="hidden"></rect></g></svg></g></svg>